<?xml version="1.0" standalone="no"?>
<!DOCTYPE svg PUBLIC "-//W3C//DTD SVG 20010904//EN"
 "http://www.w3.org/TR/2001/REC-SVG-20010904/DTD/svg10.dtd">
<svg version="1.0" xmlns="http://www.w3.org/2000/svg"
 width="330.000000pt" height="325.000000pt" viewBox="0 0 330.000000 325.000000"
 preserveAspectRatio="xMidYMid meet">

<g transform="translate(0.000000,325.000000) scale(0.100000,-0.100000)"
fill="#000000" stroke="none">
<path d="M1416 2818 c-8 -18 -27 -71 -44 -118 -102 -283 -132 -373 -128 -377
2 -2 27 10 54 27 28 17 88 45 134 62 79 30 90 32 233 32 140 1 155 -1 230 -27
44 -16 106 -44 138 -64 32 -19 60 -34 62 -32 3 4 -48 156 -132 389 l-48 135
-243 3 -243 2 -13 -32z"/>
<path d="M2364 2522 c-17 -15 -72 -62 -122 -105 -75 -63 -91 -82 -87 -100 4
-18 -11 -35 -80 -91 -47 -38 -85 -74 -85 -80 1 -17 144 -181 161 -184 8 -1 52
27 96 63 64 52 86 65 105 60 19 -4 46 14 146 96 149 124 151 132 70 231 -122
150 -145 162 -204 110z"/>
<path d="M1600 2339 c-178 -20 -350 -133 -445 -291 -46 -78 -59 -131 -75 -300
-7 -76 -17 -138 -21 -138 -5 0 -41 19 -81 43 -86 50 -212 169 -233 220 -47
113 19 195 194 240 83 22 97 29 142 73 34 33 46 51 38 59 -17 17 -357 11 -487
-9 -118 -18 -237 -52 -300 -86 -225 -120 -132 -329 236 -528 76 -42 276 -132
344 -155 15 -5 13 -18 -23 -119 -23 -62 -56 -156 -74 -208 -18 -52 -47 -133
-65 -180 -17 -47 -35 -96 -40 -110 -4 -14 -24 -71 -44 -128 -20 -56 -36 -107
-36 -112 0 -6 90 -10 243 -10 l242 0 83 243 c79 234 91 277 74 277 -17 0 -124
99 -172 159 -52 64 -93 135 -84 143 2 3 35 -4 72 -14 378 -110 679 -171 957
-193 127 -10 128 -11 71 -61 l-49 -43 84 -253 84 -253 238 -3 c141 -1 237 1
237 7 0 5 -23 74 -51 153 -123 347 -149 423 -149 430 0 4 19 8 43 8 58 0 235
26 310 46 120 31 220 93 254 158 72 138 -147 352 -522 512 -150 64 -252 100
-260 92 -3 -3 1 -23 9 -44 8 -22 22 -64 31 -94 14 -50 23 -60 91 -113 106 -82
158 -171 140 -241 -9 -36 -53 -84 -97 -106 -60 -31 -73 -27 -94 33 -40 113
-33 110 -65 29 -38 -97 -55 -122 -85 -122 -23 0 -25 3 -25 53 1 28 6 113 14
187 14 148 7 284 -17 307 -21 22 -49 6 -43 -26 3 -14 8 -52 11 -83 l6 -58 -43
0 c-24 0 -49 4 -56 8 -7 5 -17 36 -23 71 -25 160 -131 286 -284 339 l-60 20
-3 56 c-4 66 1 67 94 36 76 -25 84 -25 84 4 0 18 -9 27 -37 38 -94 37 -182 48
-283 37z"/>
<path d="M1440 969 c0 -41 -16 -68 -48 -80 l-27 -10 27 -17 c30 -18 48 -51 48
-87 0 -13 5 -27 10 -30 6 -3 10 0 10 7 0 42 23 88 53 107 l32 20 -33 12 c-35
12 -52 40 -52 85 0 13 -4 24 -10 24 -5 0 -10 -14 -10 -31z"/>
<path d="M1781 902 c-6 -49 -16 -103 -21 -119 -14 -40 -60 -64 -133 -71 l-62
-5 55 -19 c115 -39 140 -72 160 -219 7 -46 16 -88 20 -92 4 -4 14 38 24 94 9
55 23 114 31 129 17 34 64 63 125 81 68 19 67 26 -3 31 -71 6 -120 29 -136 64
-5 13 -15 63 -22 111 -6 48 -15 92 -19 96 -4 5 -12 -32 -19 -81z"/>
<path d="M1555 565 c-11 -58 -22 -75 -50 -75 -33 0 -31 -11 7 -35 25 -16 35
-31 43 -70 l12 -50 7 40 c10 50 30 82 56 90 25 8 26 25 3 25 -31 0 -45 17 -58
66 l-13 49 -7 -40z"/>
</g>
</svg>
