<svg xmlns="http://www.w3.org/2000/svg" version="1.0" width="951.000000pt" height="342.000000pt" viewBox="0 0 951.000000 342.000000" preserveAspectRatio="xMidYMid meet">

<g transform="translate(0.000000,342.000000) scale(0.100000,-0.100000)" fill="#ffffff" stroke="none">
<path d="M1632 3303 c-11 -10 -36 -65 -55 -123 -20 -58 -68 -194 -107 -303 -38 -109 -68 -203 -64 -208 3 -5 33 6 67 25 150 84 293 120 467 119 164 0 299 -35 439 -112 41 -23 75 -41 77 -41 11 0 0 42 -35 143 -131 377 -175 493 -189 505 -12 9 -87 12 -298 12 -254 0 -284 -2 -302 -17z" fill="#ffffff"/>
<path d="M2706 2799 c-146 -122 -157 -133 -151 -158 5 -26 -2 -35 -82 -101 -92 -77 -123 -107 -123 -120 0 -14 168 -217 185 -224 28 -10 31 -9 132 75 88 73 101 80 130 76 31 -5 45 4 186 121 146 122 152 129 155 167 3 38 -4 48 -103 168 -140 168 -123 168 -329 -4z" fill="#ffffff"/>
<path d="M1804 2656 c-175 -34 -303 -103 -424 -232 -122 -129 -164 -229 -185 -436 -20 -206 -24 -238 -30 -248 -9 -15 -53 7 -155 75 -200 133 -297 266 -276 378 9 48 65 111 126 142 48 24 160 59 221 69 26 5 50 21 92 65 31 32 57 63 57 69 0 16 -158 25 -303 18 -384 -20 -568 -59 -721 -151 -92 -55 -126 -107 -126 -192 0 -182 277 -401 764 -604 70 -29 131 -59 134 -67 7 -20 -11 -75 -188 -567 -182 -508 -180 -501 -172 -509 10 -11 600 -7 607 4 13 21 205 593 205 610 0 11 -25 38 -59 64 -115 88 -271 285 -271 340 0 24 29 20 190 -29 184 -55 400 -105 685 -160 108 -20 282 -44 443 -60 74 -7 136 -16 139 -18 8 -9 -19 -42 -63 -76 -24 -18 -44 -41 -43 -50 0 -9 46 -153 102 -321 l102 -305 298 -3 c331 -3 309 -8 281 69 -38 105 -98 273 -138 389 -24 69 -56 158 -71 198 -21 56 -25 75 -16 86 8 9 46 16 114 21 255 17 490 87 591 175 44 39 76 105 76 156 0 136 -190 320 -490 477 -178 93 -492 219 -507 204 -3 -4 5 -46 20 -94 14 -49 28 -99 31 -113 3 -14 22 -36 43 -50 90 -60 173 -141 206 -203 19 -34 38 -75 41 -90 17 -72 -43 -165 -137 -213 -74 -38 -86 -32 -122 61 -17 44 -35 79 -40 78 -5 -1 -26 -40 -46 -88 -45 -103 -64 -127 -98 -123 -24 3 -27 8 -32 58 -3 30 2 136 12 235 28 282 2 464 -58 404 -7 -7 -8 -23 -2 -47 5 -20 9 -65 9 -99 l0 -63 -56 0 c-71 0 -94 12 -94 50 0 93 -60 241 -130 323 -59 67 -154 131 -235 157 -38 13 -75 27 -82 32 -16 12 -5 119 14 134 15 13 45 8 134 -24 42 -15 60 -17 68 -9 19 19 12 36 -21 53 -103 54 -283 75 -414 50z" fill="#ffffff"/>
<path d="M4116 1788 c-10 -29 -58 -162 -107 -295 -49 -133 -89 -247 -89 -253 0 -7 33 -10 97 -8 l97 3 12 40 11 40 108 0 108 0 11 -40 12 -40 102 -3 c56 -1 102 1 102 5 0 4 -49 141 -109 303 l-109 295 -113 3 -114 3 -19 -53z m159 -215 c14 -49 28 -96 31 -105 5 -16 -3 -18 -60 -18 -36 0 -66 3 -66 6 0 13 61 204 65 204 2 0 16 -39 30 -87z" fill="#ffffff"/>
<path d="M4652 1538 l3 -303 253 -3 252 -2 0 80 0 80 -155 0 -155 0 0 225 0 225 -100 0 -100 0 2 -302z" fill="#ffffff"/>
<path d="M5240 1536 l0 -306 213 0 c124 0 229 5 252 11 133 37 166 215 53 283 l-41 24 32 17 c56 28 78 121 46 188 -8 18 -32 43 -52 57 -36 25 -40 25 -270 28 l-233 3 0 -305z m354 161 c21 -16 24 -60 6 -82 -10 -12 -30 -15 -89 -13 l-76 3 -2 35 c-3 66 1 70 76 70 40 0 74 -5 85 -13z m18 -234 c23 -21 23 -55 -1 -77 -15 -13 -34 -16 -97 -14 l-79 3 -1 45 c0 25 1 48 3 53 2 4 38 7 80 7 57 0 81 -4 95 -17z" fill="#ffffff"/>
<path d="M6071 1818 c-64 -173 -211 -577 -211 -582 0 -3 44 -6 99 -6 l98 0 13 45 13 46 106 -3 106 -3 13 -42 14 -43 100 0 100 0 -7 27 c-3 15 -38 112 -76 217 -39 105 -85 230 -102 278 l-32 88 -113 0 c-108 0 -113 -1 -121 -22z m152 -255 c15 -54 28 -101 27 -105 0 -5 -27 -8 -60 -8 -48 0 -60 3 -60 16 0 22 52 194 59 194 4 0 19 -44 34 -97z" fill="#ffffff"/>
<path d="M6490 1760 l0 -80 100 0 100 0 0 -225 0 -225 95 0 95 0 0 225 0 225 100 0 100 0 0 80 0 80 -295 0 -295 0 0 -80z" fill="#ffffff"/>
<path d="M7130 1760 l0 -80 100 0 100 0 0 -225 0 -225 95 0 95 0 0 225 0 225 100 0 100 0 0 80 0 80 -295 0 -295 0 0 -80z" fill="#ffffff"/>
<path d="M7915 1828 c-3 -7 -49 -134 -104 -283 -54 -148 -102 -280 -105 -292 -7 -23 -6 -23 92 -23 l99 0 13 45 13 46 106 -3 106 -3 13 -42 14 -43 100 0 100 0 -7 27 c-3 15 -37 110 -75 212 -37 102 -83 228 -101 279 l-33 92 -113 0 c-82 0 -115 -4 -118 -12z m148 -266 c15 -53 27 -100 27 -104 0 -14 -120 -9 -120 4 0 20 53 198 59 198 3 0 18 -44 34 -98z" fill="#ffffff"/>
<path d="M8440 1535 l0 -305 90 0 90 0 0 143 1 142 50 -55 c28 -30 84 -94 126 -142 l76 -88 83 0 84 0 0 305 0 305 -90 0 -89 0 -3 -147 -3 -148 -124 148 -124 147 -83 0 -84 0 0 -305z" fill="#ffffff"/>
<path d="M9180 1535 l0 -305 95 0 95 0 0 305 0 305 -95 0 -95 0 0 -305z" fill="#ffffff"/>
<path d="M4495 1008 c-40 -22 -55 -51 -55 -112 l0 -59 101 -100 c126 -125 141 -156 94 -202 -33 -34 -87 -34 -120 0 -19 18 -25 35 -25 70 0 41 -2 45 -25 45 -24 0 -25 -2 -25 -64 0 -59 2 -66 30 -90 58 -48 178 -43 219 11 25 31 28 110 7 151 -8 15 -55 64 -105 110 -100 92 -118 129 -87 177 14 21 24 25 66 25 59 0 80 -22 80 -87 0 -42 1 -43 31 -43 l32 0 -6 56 c-7 64 -27 101 -63 114 -34 13 -124 12 -149 -2z" fill="#ffffff"/>
<path d="M5247 990 c-31 -36 -33 -37 -41 -5 -4 14 -13 25 -21 25 -13 0 -15 -37 -15 -264 0 -243 1 -264 18 -268 41 -11 42 -5 42 210 0 183 2 211 19 242 13 25 26 36 47 38 36 5 54 -19 54 -70 0 -34 3 -38 25 -38 24 0 25 3 25 55 0 46 -4 60 -25 80 -36 37 -95 35 -128 -5z" fill="#ffffff"/>
<path d="M5543 1001 c-17 -11 -37 -29 -42 -40 -7 -12 -11 -98 -11 -221 0 -227 3 -237 71 -264 51 -21 94 -20 145 3 62 28 66 46 62 279 l-3 202 -27 27 c-24 23 -37 28 -95 31 -55 2 -74 -1 -100 -17z m149 -48 c16 -15 18 -35 18 -213 0 -225 0 -225 -80 -225 -80 0 -80 0 -80 223 0 168 2 198 17 214 21 24 99 25 125 1z" fill="#ffffff"/>
<path d="M6000 993 c-26 -21 -33 -24 -41 -12 -5 8 -9 17 -9 22 0 4 -7 7 -15 7 -13 0 -15 -36 -15 -264 0 -225 2 -265 15 -270 8 -3 22 -3 30 0 13 5 15 39 15 221 l0 215 29 29 c37 36 104 42 121 10 6 -12 10 -109 10 -245 0 -216 1 -225 20 -231 11 -3 24 -3 30 0 15 9 13 457 -2 490 -27 59 -133 75 -188 28z" fill="#ffffff"/>
<path d="M6394 1001 c-46 -28 -54 -64 -54 -251 0 -188 4 -220 31 -249 48 -51 170 -52 221 -1 l28 28 0 207 c0 230 -5 255 -61 274 -50 17 -130 14 -165 -8z m152 -45 c17 -13 19 -29 22 -198 2 -134 -1 -190 -10 -208 -23 -43 -105 -52 -142 -14 -24 24 -24 389 1 416 20 22 100 25 129 4z" fill="#ffffff"/>
<path d="M6857 995 c-36 -24 -37 -24 -47 -5 -26 49 -30 13 -28 -247 3 -260 4 -268 23 -268 19 0 20 8 25 223 l5 224 28 24 c37 32 90 33 111 2 13 -19 16 -60 16 -245 0 -129 4 -223 9 -223 5 0 16 -3 25 -6 13 -5 15 23 18 221 l3 227 30 24 c39 31 88 32 109 2 13 -19 16 -60 16 -250 l0 -228 25 2 25 2 0 238 c0 152 -4 246 -11 261 -23 51 -112 63 -171 23 l-34 -23 -28 23 c-37 33 -101 32 -149 -1z" fill="#ffffff"/>
<path d="M8044 1010 c-12 -4 -31 -21 -43 -36 -20 -25 -21 -38 -21 -225 0 -209 5 -237 46 -264 53 -35 161 -27 199 15 10 11 20 41 23 70 l5 50 -32 0 c-29 0 -31 -2 -31 -39 0 -48 -20 -66 -75 -66 -74 0 -75 2 -75 225 0 223 2 230 76 230 57 0 68 -11 74 -77 5 -54 7 -58 33 -61 27 -3 27 -2 27 52 0 67 -13 97 -50 119 -30 18 -119 22 -156 7z" fill="#ffffff"/>
<path d="M4121 973 c-6 -21 -30 -129 -55 -240 -25 -111 -48 -213 -52 -227 -6 -24 -3 -26 24 -26 28 0 30 3 42 60 l13 60 78 0 78 0 10 -37 c5 -21 12 -50 15 -65 5 -21 12 -28 31 -28 17 0 25 6 25 18 0 9 -20 103 -44 207 -24 105 -49 218 -57 253 l-13 62 -43 0 c-40 0 -43 -2 -52 -37z m84 -173 c14 -63 28 -123 31 -132 5 -16 -2 -18 -60 -18 -49 0 -66 4 -66 14 0 16 48 235 56 256 8 19 8 18 39 -120z" fill="#ffffff"/>
<path d="M4850 775 c0 -154 4 -243 11 -259 17 -37 74 -61 117 -50 51 13 75 52 80 129 l4 65 -31 0 -31 0 0 -58 c0 -46 -4 -63 -20 -77 -17 -15 -24 -16 -45 -7 l-25 12 0 215 0 215 60 0 c57 0 60 1 60 25 0 25 -1 25 -90 25 l-90 0 0 -235z" fill="#ffffff"/>
<path d="M7382 851 c3 -153 4 -160 27 -185 14 -15 39 -30 55 -34 31 -8 31 -9 34 -79 2 -53 7 -73 18 -77 28 -11 34 4 34 75 l0 69 39 16 c66 26 71 42 71 219 l0 155 -25 0 -25 0 0 -144 c0 -173 -7 -189 -83 -189 -82 0 -87 11 -87 185 l0 148 -31 0 -31 0 4 -159z" fill="#ffffff"/>
<path d="M8400 746 c0 -202 3 -265 13 -268 10 -3 160 -2 190 1 4 1 7 10 7 21 0 18 -7 20 -75 20 l-75 0 0 245 0 245 -30 0 -30 0 0 -264z" fill="#ffffff"/>
<path d="M8700 775 c0 -154 4 -243 11 -259 12 -27 63 -56 97 -56 30 0 74 19 99 42 l22 21 11 -27 c24 -63 30 -10 30 250 l0 264 -24 0 -25 0 -3 -220 -3 -220 -26 -25 c-31 -32 -86 -42 -114 -22 -19 14 -20 29 -23 251 l-3 236 -25 0 -24 0 0 -235z" fill="#ffffff"/>
<path d="M9140 993 c-2 -122 -1 -516 2 -518 2 -1 47 0 100 4 89 6 100 9 125 34 26 26 28 33 28 113 0 81 -1 87 -27 109 -22 19 -25 26 -14 32 23 14 36 50 36 105 0 103 -44 138 -172 138 -68 0 -78 -2 -78 -17z m168 -49 c18 -13 22 -25 22 -73 0 -73 -18 -92 -87 -94 l-48 -2 -3 93 -3 92 48 0 c28 0 58 -7 71 -16z m12 -229 c16 -15 20 -31 20 -86 0 -90 -26 -115 -111 -107 l-34 3 -3 94 c-1 52 0 101 3 109 8 20 99 11 125 -13z" fill="#ffffff"/>
<path d="M1647 913 c-3 -5 -8 -23 -12 -41 -4 -22 -16 -37 -36 -48 l-30 -15 35 -40 c20 -21 36 -49 36 -62 0 -50 17 -50 34 1 10 30 27 57 42 66 31 21 30 28 -6 49 -20 12 -33 31 -40 57 -11 40 -15 46 -23 33z" fill="#ffffff"/>
<path d="M2090 894 c0 -48 -42 -230 -57 -247 -25 -27 -91 -57 -130 -57 -44 0 -50 -16 -10 -29 60 -20 125 -68 145 -108 11 -21 27 -85 36 -143 24 -147 29 -148 52 -9 27 161 56 201 177 249 32 12 56 24 54 27 -3 2 -33 8 -68 14 -119 19 -150 58 -170 213 -6 44 -15 85 -20 91 -6 5 -9 5 -9 -1z" fill="#ffffff"/>
<path d="M1781 355 c-7 -19 -15 -35 -19 -35 -4 0 -16 -7 -26 -15 -18 -14 -18 -15 12 -43 18 -17 33 -43 37 -65 9 -47 21 -47 30 0 4 24 19 48 42 69 33 31 34 32 14 39 -29 9 -61 44 -61 67 0 29 -15 21 -29 -17z" fill="#ffffff"/>
</g>
</svg>