<svg xmlns="http://www.w3.org/2000/svg" version="1.0" width="1280.000000pt" height="1280.000000pt" viewBox="0 0 1280.000000 1280.000000" preserveAspectRatio="xMidYMid meet">

<g transform="translate(0.000000,1280.000000) scale(0.100000,-0.100000)" fill="#ffffff" stroke="none">
<path d="M2676 8297 c-11 -8 -40 -74 -66 -148 -26 -74 -75 -214 -110 -312 -35 -97 -60 -180 -57 -183 3 -3 34 10 69 29 151 85 293 121 468 120 164 0 299 -35 439 -112 41 -23 75 -41 77 -41 11 0 0 42 -35 143 -143 408 -175 493 -189 505 -24 18 -571 17 -596 -1z" fill="#ffffff"/>
<path d="M3745 7789 c-146 -122 -156 -132 -150 -158 5 -26 -2 -35 -82 -101 -92 -77 -123 -107 -123 -120 0 -14 168 -217 185 -224 28 -10 31 -9 132 75 88 73 101 80 130 76 31 -5 45 4 186 121 146 122 152 129 155 167 3 38 -3 47 -103 168 -141 168 -124 168 -330 -4z" fill="#ffffff"/>
<path d="M2844 7646 c-92 -18 -135 -32 -208 -69 -190 -94 -355 -294 -386 -468 -5 -30 -16 -125 -24 -212 -8 -86 -18 -162 -21 -167 -9 -15 -51 6 -155 75 -200 133 -297 266 -276 378 9 48 65 111 126 142 48 24 160 59 221 70 28 4 50 20 93 66 31 33 56 64 56 68 0 24 -257 25 -535 1 -306 -27 -551 -127 -602 -247 -39 -94 -1 -197 115 -312 124 -122 296 -224 602 -356 193 -84 188 -76 140 -206 -26 -68 -161 -446 -315 -879 -13 -35 -21 -68 -19 -72 8 -12 602 -10 609 2 13 21 205 593 205 611 0 10 -26 37 -59 63 -113 88 -271 284 -271 339 0 26 27 22 189 -27 152 -46 264 -75 391 -101 41 -8 104 -22 140 -29 170 -37 376 -69 598 -91 74 -7 136 -16 139 -18 8 -9 -19 -42 -63 -76 -24 -18 -44 -41 -43 -50 0 -9 46 -153 102 -321 l102 -305 298 -3 c331 -3 309 -8 281 69 -34 94 -107 299 -144 404 -21 61 -50 143 -65 183 -24 62 -26 75 -14 86 8 8 65 18 139 24 405 36 640 157 640 328 -1 168 -276 395 -700 577 -137 58 -289 112 -297 104 -3 -4 2 -33 12 -64 9 -32 22 -80 29 -107 11 -45 20 -56 107 -126 203 -164 247 -307 128 -414 -56 -50 -110 -79 -141 -74 -17 2 -29 21 -53 83 -17 44 -35 79 -40 78 -5 -1 -26 -40 -46 -88 -21 -48 -45 -95 -55 -106 -18 -20 -59 -26 -69 -9 -11 18 -7 171 9 320 21 198 3 380 -37 380 -26 0 -35 -20 -26 -58 5 -20 9 -65 9 -99 l0 -63 -56 0 c-71 0 -94 12 -94 50 0 93 -60 241 -130 323 -59 67 -154 131 -235 157 -38 13 -75 27 -82 32 -16 12 -5 119 14 134 15 13 45 8 134 -24 42 -15 60 -17 68 -9 19 19 12 36 -21 53 -103 54 -283 75 -414 50z" fill="#ffffff"/>
<path d="M5067 6533 c-59 -164 -108 -302 -107 -306 0 -4 44 -6 97 -5 l97 3 12 40 11 40 108 0 108 0 11 -40 12 -40 102 -3 c56 -1 102 1 102 5 0 4 -49 141 -109 303 l-109 295 -113 3 -114 2 -108 -297z m248 30 c14 -49 28 -96 31 -105 5 -16 -3 -18 -60 -18 -36 0 -66 3 -66 6 0 13 61 204 65 204 2 0 16 -39 30 -87z" fill="#ffffff"/>
<path d="M5692 6528 l3 -303 253 -3 252 -2 0 80 0 80 -155 0 -155 0 0 225 0 225 -100 0 -100 0 2 -302z" fill="#ffffff"/>
<path d="M6280 6526 l0 -306 213 0 c124 0 229 5 252 11 133 37 166 215 53 283 l-41 24 30 16 c62 32 82 148 37 209 -44 59 -59 62 -311 65 l-233 3 0 -305z m354 161 c21 -16 24 -60 6 -82 -10 -12 -30 -15 -89 -13 l-76 3 -1 35 c-3 67 0 70 75 70 40 0 74 -5 85 -13z m18 -234 c23 -21 23 -55 -1 -77 -15 -13 -34 -16 -97 -14 l-79 3 -1 40 c-1 64 0 65 84 65 56 0 80 -4 94 -17z" fill="#ffffff"/>
<path d="M7111 6808 c-64 -173 -211 -577 -211 -582 0 -3 44 -6 99 -6 l98 0 13 45 13 46 106 -3 106 -3 13 -42 14 -43 99 0 c61 0 99 4 99 10 0 6 -48 143 -107 305 l-107 295 -113 0 c-109 0 -114 -1 -122 -22z m152 -256 c15 -53 27 -100 27 -104 0 -5 -27 -8 -60 -8 -48 0 -60 3 -60 16 0 22 52 194 59 194 3 0 18 -44 34 -98z" fill="#ffffff"/>
<path d="M7530 6750 l0 -80 100 0 100 0 0 -225 0 -225 95 0 95 0 0 225 0 225 100 0 100 0 0 80 0 80 -295 0 -295 0 0 -80z" fill="#ffffff"/>
<path d="M8170 6750 l0 -80 100 0 100 0 0 -225 0 -225 95 0 95 0 0 225 0 225 100 0 100 0 0 80 0 80 -295 0 -295 0 0 -80z" fill="#ffffff"/>
<path d="M8955 6818 c-3 -7 -49 -134 -104 -283 -54 -148 -102 -280 -105 -292 -7 -23 -6 -23 92 -23 l99 0 13 45 13 46 106 -3 106 -3 13 -42 14 -43 99 0 c61 0 99 4 99 10 0 6 -48 143 -107 305 l-107 295 -114 0 c-81 0 -114 -4 -117 -12z m148 -266 c15 -53 27 -100 27 -104 0 -14 -120 -9 -120 4 0 21 53 198 59 198 3 0 18 -44 34 -98z" fill="#ffffff"/>
<path d="M9480 6525 l0 -305 90 0 90 0 0 143 1 142 32 -35 c52 -57 162 -182 192 -217 26 -32 28 -33 111 -33 l84 0 0 305 0 305 -90 0 -90 0 0 -151 0 -150 -126 150 -127 151 -83 0 -84 0 0 -305z" fill="#ffffff"/>
<path d="M10220 6525 l0 -305 95 0 95 0 0 305 0 305 -95 0 -95 0 0 -305z" fill="#ffffff"/>
<path d="M5535 5998 c-38 -20 -55 -51 -55 -101 0 -65 15 -91 109 -179 114 -107 132 -148 86 -193 -16 -17 -35 -25 -60 -25 -53 0 -85 36 -85 95 0 41 -2 45 -25 45 -24 0 -25 -3 -25 -61 0 -53 3 -64 28 -89 53 -53 178 -49 221 7 25 31 28 110 7 151 -8 15 -55 64 -104 109 -72 66 -91 89 -96 118 -11 58 12 85 74 85 59 0 80 -22 80 -87 0 -42 1 -43 31 -43 l32 0 -6 56 c-7 64 -27 101 -63 114 -34 13 -124 12 -149 -2z" fill="#ffffff"/>
<path d="M6287 5980 c-31 -36 -33 -37 -41 -5 -4 14 -13 25 -21 25 -13 0 -15 -38 -15 -265 l0 -265 30 0 30 0 0 208 c0 183 2 211 19 242 13 25 26 36 47 38 36 5 54 -19 54 -70 0 -34 3 -38 25 -38 24 0 25 3 25 55 0 46 -4 60 -25 80 -36 37 -95 35 -128 -5z" fill="#ffffff"/>
<path d="M6594 6001 c-12 -5 -31 -22 -43 -37 -20 -25 -21 -37 -21 -231 0 -230 3 -240 71 -267 51 -21 94 -20 145 3 62 28 66 46 62 279 l-3 202 -27 27 c-24 24 -37 28 -95 30 -38 2 -78 -1 -89 -6z m138 -58 c16 -15 18 -35 18 -213 0 -225 0 -225 -80 -225 -80 0 -80 0 -80 223 0 168 2 198 17 214 21 24 99 25 125 1z" fill="#ffffff"/>
<path d="M7040 5983 c-26 -21 -33 -24 -41 -12 -5 8 -9 17 -9 22 0 4 -7 7 -15 7 -13 0 -15 -34 -13 -267 l3 -268 28 -3 27 -3 0 221 0 222 29 29 c37 36 104 42 121 10 6 -12 10 -109 10 -245 0 -216 1 -225 20 -231 11 -3 24 -3 30 0 15 9 13 457 -2 490 -27 59 -133 75 -188 28z" fill="#ffffff"/>
<path d="M7434 5991 c-47 -29 -54 -63 -54 -263 0 -143 3 -187 16 -213 35 -75 190 -87 244 -18 19 24 20 39 20 230 0 228 -6 253 -61 272 -50 17 -130 14 -165 -8z m152 -45 c18 -13 19 -28 19 -211 0 -195 0 -197 -24 -216 -36 -29 -109 -21 -133 15 -4 6 -8 96 -8 200 0 220 2 226 80 226 25 0 55 -6 66 -14z" fill="#ffffff"/>
<path d="M7897 5985 c-36 -24 -37 -24 -47 -5 -26 49 -30 13 -28 -247 3 -260 4 -268 23 -268 19 0 20 8 25 223 l5 224 28 24 c33 28 88 32 108 7 11 -12 15 -72 19 -246 5 -227 5 -230 27 -233 l22 -4 3 226 3 226 30 24 c39 31 88 32 109 2 13 -19 16 -60 16 -250 l0 -228 25 2 25 2 0 238 c0 152 -4 246 -11 261 -23 51 -112 63 -171 23 l-34 -23 -28 23 c-37 33 -101 32 -149 -1z" fill="#ffffff"/>
<path d="M9084 6000 c-12 -4 -31 -21 -43 -36 -20 -25 -21 -38 -21 -225 0 -209 5 -237 46 -264 53 -35 161 -27 199 15 10 11 20 41 23 70 l5 50 -32 0 c-29 0 -31 -2 -31 -39 0 -48 -20 -66 -75 -66 -74 0 -75 2 -75 225 0 223 2 230 76 230 57 0 68 -11 74 -77 5 -54 7 -58 33 -61 27 -3 27 -2 27 52 0 70 -14 101 -55 121 -35 16 -117 19 -151 5z" fill="#ffffff"/>
<path d="M5161 5963 c-6 -21 -30 -129 -55 -240 -25 -111 -48 -213 -52 -227 -6 -24 -3 -26 24 -26 28 0 30 3 42 60 l13 60 78 0 78 0 10 -37 c5 -21 12 -50 15 -65 5 -21 12 -28 31 -28 18 0 25 5 25 19 0 10 -20 103 -44 207 -24 104 -49 217 -57 252 l-13 62 -43 0 c-40 0 -43 -2 -52 -37z m84 -173 c14 -63 28 -123 31 -132 5 -16 -2 -18 -60 -18 -52 0 -66 3 -66 15 0 16 48 230 57 255 7 19 7 18 38 -120z" fill="#ffffff"/>
<path d="M5890 5765 c0 -270 4 -286 69 -306 82 -24 133 21 139 126 l4 65 -31 0 -31 0 0 -58 c0 -44 -5 -63 -18 -75 -23 -21 -36 -21 -56 -1 -14 13 -16 48 -16 225 l0 209 60 0 c57 0 60 1 60 25 0 25 -1 25 -90 25 l-90 0 0 -235z" fill="#ffffff"/>
<path d="M8422 5841 c3 -153 4 -160 27 -185 14 -15 39 -30 55 -34 31 -8 31 -9 34 -80 2 -40 7 -73 12 -73 33 -6 35 -2 40 71 5 68 7 75 27 78 12 2 36 16 53 32 l30 28 0 161 0 161 -25 0 -25 0 0 -144 c0 -173 -7 -189 -83 -189 -82 0 -87 11 -87 185 l0 148 -31 0 -31 0 4 -159z" fill="#ffffff"/>
<path d="M9442 5733 l3 -268 95 2 c52 1 98 2 103 3 4 0 7 9 7 20 0 18 -7 20 -75 20 l-75 0 0 245 0 245 -30 0 -30 0 2 -267z" fill="#ffffff"/>
<path d="M9740 5765 c0 -154 4 -243 11 -259 7 -14 26 -32 44 -41 56 -26 102 -18 152 28 l22 20 11 -27 c24 -63 30 -10 30 250 l0 264 -24 0 -25 0 -3 -220 -3 -220 -26 -25 c-31 -32 -86 -42 -114 -22 -19 14 -20 29 -23 251 l-3 236 -25 0 -24 0 0 -235z" fill="#ffffff"/>
<path d="M10180 5878 c-1 -302 -1 -411 2 -414 2 -2 46 0 97 3 84 6 98 9 125 34 30 27 31 30 31 114 0 82 -1 88 -27 110 -22 19 -25 26 -14 32 23 14 36 50 36 105 0 103 -44 138 -172 138 l-78 0 0 -122z m168 56 c18 -13 22 -25 22 -73 0 -73 -18 -92 -87 -94 l-48 -2 -3 93 -3 92 48 0 c28 0 58 -7 71 -16z m12 -229 c16 -15 20 -31 20 -86 0 -90 -26 -115 -111 -107 l-34 3 -3 94 c-1 52 0 101 3 109 8 20 99 11 125 -13z" fill="#ffffff"/>
<path d="M2680 5877 c-9 -34 -20 -52 -36 -59 -31 -14 -30 -23 6 -65 17 -18 30 -44 30 -56 1 -50 17 -50 34 1 10 30 27 57 42 66 31 21 30 28 -6 49 -21 13 -34 32 -44 65 l-14 47 -12 -48z" fill="#ffffff"/>
<path d="M3130 5884 c0 -48 -42 -230 -57 -247 -25 -27 -91 -57 -130 -57 -44 0 -50 -16 -10 -29 60 -20 125 -68 145 -108 11 -21 27 -85 37 -143 9 -58 21 -109 25 -114 5 -4 12 14 15 40 13 91 35 185 50 214 19 38 66 71 138 100 32 12 56 24 54 27 -3 2 -33 8 -68 14 -119 19 -150 58 -170 213 -6 44 -15 85 -20 91 -6 5 -9 5 -9 -1z" fill="#ffffff"/>
<path d="M2827 5361 c-6 -29 -25 -53 -53 -69 -13 -7 -11 -14 14 -39 17 -17 34 -46 37 -66 9 -47 21 -47 30 0 4 24 19 48 42 69 33 31 34 32 14 39 -29 9 -61 44 -61 66 0 30 -17 30 -23 0z" fill="#ffffff"/>
</g>
</svg>